Coordinates
version=1
nRows=17
nColumns=33
inDegrees=yes

Units are S.I. units (second, meters, Newtons, ...)
Angles are in degrees.

endheader
time	ground_thorax_rot_x	ground_thorax_rot_y	ground_thorax_rot_z	ground_thorax_tx	ground_thorax_ty	ground_thorax_tz	clav_prot_r	clav_elev_r	scapula_abduction_r	scapula_elevation_r	scapula_upward_rot_r	scapula_winging_r	shoulder_elv_r	plane_of_elev_r	axial_rot_r	elbow_flexion_r	pro_sup_r	wrist_flex_r	wrist_dev_r	clav_prot_l	clav_elev_l	scapula_abduction_l	scapula_elevation_l	scapula_upward_rot_l	scapula_winging_l	shoulder_elv_l	plane_of_elev_l	axial_rot_l	elbow_flexion_l	pro_sup_l	wrist_flex_l	wrist_dev_l
      6.18000000	     32.18015138	     24.17439225	     32.06786939	   -112.97393302	    857.62931339	    -40.21158234	     11.42157552	     33.47590725	     24.48407762	     45.00000000	    -45.00000000	   1711.52681599	   1515.07339397	     24.12319024	    179.99999979	   2884.27812946	    178.11904937	     16.73013458	     14.57384553	     -7.22459380	    -45.00000000	    -40.66772335	     45.00000000	    -30.03358888	   2989.90736466	  -4411.36808540	    142.16745634	    179.99999979	   2155.70967936	   -322.64547235	     13.19203653	    -24.13339483
      6.19000000	     31.96859061	     24.33122778	     32.31959437	   -112.76774588	    857.32497946	    -40.15024164	     11.47723495	     33.63771318	     24.24768250	     45.00000000	    -45.00000000	   1711.67530452	   1515.20502489	     23.91884301	    179.99999979	   2884.00410393	    178.08005409	     17.22624351	     14.99497891	     -7.26648335	    -45.00000000	    -40.70978857	     45.00000000	    -30.19290199	   2989.63684752	  -4411.25888964	    142.53908193	    179.99999979	   2155.87486646	   -322.67079307	     12.99816095	    -24.27819011
      6.20000000	     32.14240334	     24.17851183	     32.13380712	   -112.50063731	    856.96005863	    -40.13402594	     11.34618664	     33.33636789	     24.52841935	     45.00000000	    -45.00000000	   1711.41995396	   1514.87008307	     24.14967444	    179.99999979	   2884.10199982	    178.15844825	     16.85961699	     14.28034887	     -7.15606329	    -45.00000000	    -40.45864640	     45.00000000	    -30.19742129	   2989.98029016	  -4411.48252120	    141.99309799	    179.99999979	   2155.83089130	   -322.48915872	     12.98822342	    -24.25227302
      6.21000000	     32.02445531	     24.21494121	     32.25949258	   -112.17578207	    856.55209302	    -40.16027647	     11.40524092	     33.46428552	     24.32200868	     45.00000000	    -45.00000000	   1711.69072572	   1515.06755063	     24.05842298	    179.99999979	   2884.07853327	    178.30549687	     17.27692395	     14.64982098	     -7.16953848	    -45.00000000	    -40.47747674	     45.00000000	    -30.27921831	   2989.70256034	  -4411.46077214	    142.28720182	    179.99999979	   2155.90306061	   -322.32978258	     12.81309900	    -24.34417591
      6.22000000	     31.94550913	     24.30117717	     32.39433244	   -111.78653266	    856.11837869	    -40.22408310	     11.42345548	     33.49034188	     24.28961739	     45.00000000	    -45.00000000	   1711.68443148	   1515.04760869	     24.05192365	    179.99999979	   2884.07155383	    178.49138318	     17.32145900	     14.47248337	     -7.26663539	    -45.00000000	    -40.55148658	     45.00000000	    -30.36211056	   2989.76290848	  -4411.55640480	    142.24388433	    179.99999979	   2156.00553926	   -322.17360550	     12.61007255	    -24.30668137
      6.23000000	     31.90442314	     24.31533672	     32.51086104	   -111.32252246	    855.67155781	    -40.31867353	     11.39874662	     33.45131946	     24.34237378	     45.00000000	    -45.00000000	   1711.79025790	   1515.06323941	     23.94936451	    179.99999979	   2884.10881522	    178.70272855	     17.56037008	     14.49120466	     -7.18106722	    -45.00000000	    -40.43708499	     45.00000000	    -30.39689392	   2989.65358114	  -4411.54941704	    142.33056101	    179.99999979	   2156.09085934	   -322.02369306	     12.50729975	    -24.34993695
      6.24000000	     31.83549584	     24.36768898	     32.61141637	   -110.77987755	    855.22906436	    -40.43676464	     11.44925262	     33.48640870	     24.26942071	     45.00000000	    -45.00000000	   1711.79922525	   1515.02047379	     24.02674416	    179.99999979	   2884.10168597	    178.94521246	     17.53664139	     14.28622673	     -7.28338575	    -45.00000000	    -40.54087127	     45.00000000	    -30.45423503	   2989.72057155	  -4411.64574590	    142.28116429	    179.99999979	   2156.19617839	   -321.88849662	     12.34354016	    -24.31694916
      6.25000000	     31.83555147	     24.32738223	     32.66409150	   -110.15548308	    854.80450654	    -40.57152621	     11.40264515	     33.43537720	     24.38616069	     45.00000000	    -45.00000000	   1711.90588022	   1515.06709006	     23.91243318	    179.99999979	   2884.08229686	    179.19106007	     17.85674432	     14.43326914	     -7.14273960	    -45.00000000	    -40.37242293	     45.00000000	    -30.39974839	   2989.57751962	  -4411.62916236	    142.32207995	    179.99999979	   2156.27084496	   -321.75665878	     12.32147572	    -24.39010746
      6.26000000	     31.71502714	     24.42204666	     32.84545173	   -109.44776955	    854.40823072	    -40.71759692	     11.49549283	     33.48990409	     24.30359839	     45.00000000	    -45.00000000	   1711.86221683	   1515.01482603	     24.03908281	    179.99999979	   2884.01815740	    179.42370201	     17.74812942	     14.10935962	     -7.30686294	    -45.00000000	    -40.54561444	     45.00000000	    -30.39952002	   2989.65860328	  -4411.73290564	    142.30619858	    179.99999979	   2156.37214924	   -321.64168311	     12.16891469	    -24.42518653
      6.27000000	     31.73788476	     24.35205245	     32.86187400	   -108.66037644	    854.04955438	    -40.86992840	     11.42977168	     33.42562032	     24.49902375	     45.00000000	    -45.00000000	   1712.00163209	   1515.05242574	     23.85968459	    179.99999979	   2884.01071203	    179.62866942	     18.12351583	     14.38308206	     -7.12864292	    -45.00000000	    -40.35591775	     45.00000000	    -30.25286164	   2989.49709670	  -4411.67003753	    142.31864485	    179.99999979	   2156.45722050	   -321.50237514	     12.18767928	    -24.46733344
      6.28000000	     31.62609972	     24.46414680	     33.04328510	   -107.79307078	    853.73191798	    -41.02562785	     11.55182074	     33.50276313	     24.39431725	     45.00000000	    -45.00000000	   1711.90741368	   1514.98849144	     24.05931552	    179.99999979	   2883.91898572	    179.77841702	     17.91124511	     13.99525168	     -7.33146548	    -45.00000000	    -40.54010887	     45.00000000	    -30.21843738	   2989.56561751	  -4411.77627057	    142.28371518	    179.99999979	   2156.57934149	   -321.40891476	     12.07260834	    -24.54629437
      6.29000000	     31.65776376	     24.38454515	     33.07521266	   -106.84968349	    853.45758544	    -41.18208073	     11.51833864	     33.43485994	     24.61025365	     45.00000000	    -45.00000000	   1712.06051298	   1515.00348395	     23.88001592	    179.99999979	   2883.89919204	    179.87635332	     18.28580690	     14.30259050	     -7.20635044	    -45.00000000	    -40.32130474	     45.00000000	    -30.05532526	   2989.36749238	  -4411.70931450	    142.32291841	    179.99999979	   2156.67702199	   -321.27498197	     12.11095846	    -24.60250030
      6.30000000	     31.62844858	     24.39333352	     33.11755883	   -105.83002699	    853.22443961	    -41.33790890	     11.60053971	     33.53256909	     24.61330242	     45.00000000	    -45.00000000	   1712.00307480	   1514.86262790	     24.04034454	    179.99999979	   2883.81588063	    179.91613388	     18.10903198	     14.09479519	     -7.43362283	    -45.00000000	    -40.36564984	     45.00000000	    -30.03992306	   2989.33091909	  -4411.77549684	    142.23815707	    179.99999979	   2156.75925849	   -321.16230132	     12.06606761	    -24.79176416
      6.31000000	     31.57003770	     24.42368323	     33.25567214	   -104.73324722	    853.02800475	    -41.49190928	     11.68412577	     33.46595994	     24.70623395	     45.00000000	    -45.00000000	   1712.07370083	   1514.89465957	     24.00611884	    179.99999979	   2883.78253483	    179.87427123	     18.26800102	     14.15580939	     -7.38137401	    -45.00000000	    -40.33266053	     45.00000000	    -29.91902810	   2989.16431232	  -4411.74418920	    142.29376990	    179.99999979	   2156.91293045	   -321.02607310	     12.07513358	    -24.72347572
      6.32000000	     31.55270792	     24.46116940	     33.41995369	   -103.56488924	    852.86285089	    -41.64149500	     11.71038569	     33.52724006	     24.82488472	     45.00000000	    -45.00000000	   1712.06179474	   1514.80613586	     24.02230970	    179.99999979	   2883.71406069	    179.78953265	     18.20760364	     14.11011950	     -7.44797144	    -45.00000000	    -40.32258082	     45.00000000	    -29.75510991	   2989.17936745	  -4411.79742970	    142.25103923	    179.99999979	   2157.01729191	   -320.95188625	     12.08401941	    -24.75680914
      6.33000000	     31.55745471	     24.45095653	     33.52266019	   -102.31760045	    852.71976692	    -41.78529920	     11.78011610	     33.52925793	     24.97143995	     45.00000000	    -45.00000000	   1712.08883733	   1514.78106331	     24.03572023	    179.99999979	   2883.63553493	    179.63806661	     18.28299230	     14.13926805	     -7.54022312	    -45.00000000	    -40.25720665	     45.00000000	    -29.60083082	   2989.02034126	  -4411.82131964	    142.31666191	    179.99999979	   2157.15460129	   -320.88439154	     12.12351953	    -24.89331363
      6.34000000	     31.53316333	     24.48494323	     33.68811930	   -100.99765894	    852.59049515	    -41.91991703	     11.85172354	     33.54074649	     25.11280829	     45.00000000	    -45.00000000	   1712.09206613	   1514.73775551	     24.05358058	    179.99999979	   2883.55190220	    179.45346848	     18.25664123	     14.14224531	     -7.58803743	    -45.00000000	    -40.22915809	     45.00000000	    -29.44249314	   2988.95293772	  -4411.84479571	    142.30551649	    179.99999979	   2157.28183274	   -320.79156328	     12.15230264	    -24.89539898
